<?xml version="1.0" standalone="no"?>
<!DOCTYPE svg PUBLIC "-//W3C//DTD SVG 20010904//EN"
 "http://www.w3.org/TR/2001/REC-SVG-20010904/DTD/svg10.dtd">
<svg version="1.0" xmlns="http://www.w3.org/2000/svg"
 width="500.000000pt" height="500.000000pt" viewBox="0 0 500.000000 500.000000"
 preserveAspectRatio="xMidYMid meet">

<g transform="translate(0.000000,500.000000) scale(0.100000,-0.100000)"
fill="#000000" stroke="none">
<path d="M2408 3232 c-92 -92 -168 -175 -168 -185 0 -14 9 -17 45 -17 l45 0 0
-173 c0 -121 4 -177 12 -185 16 -16 150 -16 166 0 7 7 12 41 12 85 0 82 9 93
77 93 61 0 67 -9 73 -102 l5 -83 85 0 85 0 3 183 2 182 45 0 c24 0 47 5 50 11
9 13 -333 359 -354 359 -9 0 -91 -76 -183 -168z"/>
<path d="M1610 2585 c0 -8 7 -15 15 -15 12 0 15 -16 15 -80 0 -64 -3 -80 -15
-80 -8 0 -15 -4 -15 -10 0 -5 23 -10 50 -10 28 0 50 5 50 10 0 6 -7 10 -15 10
-11 0 -15 11 -15 40 l0 40 40 0 40 0 0 -40 c0 -29 -4 -40 -15 -40 -8 0 -15 -4
-15 -10 0 -5 23 -10 50 -10 28 0 50 5 50 10 0 6 -7 10 -15 10 -12 0 -15 16
-15 80 0 64 3 80 15 80 8 0 15 7 15 16 0 12 -10 14 -47 12 -26 -2 -48 -9 -51
-15 -2 -7 3 -13 12 -13 11 0 16 -9 16 -30 0 -28 -2 -30 -40 -30 -38 0 -40 2
-40 30 0 20 5 30 15 30 8 0 15 7 15 15 0 11 -12 15 -50 15 -38 0 -50 -4 -50
-15z"/>
<path d="M2570 2590 c0 -5 7 -10 15 -10 24 0 22 -165 -2 -179 -14 -8 -7 -10
32 -10 39 0 46 2 33 10 -22 12 -24 49 -4 49 8 0 23 -14 33 -30 18 -31 45 -46
63 -35 15 9 12 25 -4 25 -8 0 -26 14 -41 32 l-27 32 28 23 c16 13 35 23 42 23
7 0 10 5 7 10 -8 13 -85 13 -85 1 0 -5 5 -11 11 -13 5 -2 -1 -14 -15 -27 l-26
-24 0 66 0 67 -30 0 c-16 0 -30 -4 -30 -10z"/>
<path d="M3040 2591 c0 -6 5 -11 10 -11 15 0 13 -177 -2 -183 -7 -3 7 -5 32
-5 25 0 39 2 33 5 -8 3 -13 24 -13 53 0 40 4 51 21 61 28 15 39 -1 39 -58 0
-30 -5 -45 -17 -52 -14 -8 -6 -10 32 -10 28 1 42 3 33 6 -15 4 -18 16 -18 62
0 31 -5 62 -12 69 -16 16 -55 15 -65 0 -5 -8 -10 2 -13 27 -4 35 -9 40 -32 43
-16 2 -28 -1 -28 -7z"/>
<path d="M2933 2555 c-12 -19 -18 -35 -14 -35 5 0 11 -25 13 -56 5 -64 25 -90
61 -80 27 6 45 52 28 69 -8 8 -11 5 -11 -10 0 -22 -23 -47 -33 -36 -4 3 -7 30
-7 60 0 50 1 53 25 53 14 0 25 5 25 10 0 6 -11 10 -25 10 -20 0 -25 5 -25 25
0 34 -11 31 -37 -10z"/>
<path d="M1868 2529 c-26 -15 -23 -49 3 -49 17 0 20 5 16 21 -4 16 -1 20 16
17 37 -5 33 -37 -7 -53 -45 -19 -62 -48 -40 -69 19 -20 34 -20 62 0 12 8 22
11 22 5 0 -13 37 -24 52 -15 7 4 35 6 62 5 46 -2 49 -1 32 12 -15 11 -18 22
-13 57 6 48 19 65 41 57 20 -8 23 -113 4 -120 -7 -3 48 -5 122 -5 74 0 127 2
117 5 -16 4 -18 13 -16 61 2 32 0 63 -4 70 -10 14 -57 16 -57 2 0 -5 7 -10 15
-10 13 0 15 -11 13 -57 -3 -55 -4 -58 -30 -61 -27 -3 -28 -2 -28 48 0 28 -5
60 -10 71 -12 21 -50 25 -68 7 -9 -9 -15 -9 -24 0 -7 7 -21 12 -33 12 -12 0
-26 -5 -33 -12 -9 -9 -12 -9 -12 0 0 14 -46 16 -55 2 -3 -5 1 -10 9 -10 13 0
16 -12 16 -58 0 -46 -3 -59 -15 -59 -9 0 -15 10 -15 24 0 13 -4 23 -10 23 -5
0 -10 -9 -10 -21 0 -43 -25 -11 -28 37 -2 26 -8 54 -14 61 -12 15 -56 16 -80
2z m341 -23 c7 -8 11 -34 9 -58 -3 -38 -6 -43 -28 -43 -22 0 -25 5 -28 43 -3
40 10 72 28 72 4 0 13 -6 19 -14z m-283 -81 c-6 -16 -46 -21 -46 -6 0 6 10 17
22 26 24 16 35 7 24 -20z"/>
<path d="M2357 2534 c-10 -10 12 -44 27 -44 16 0 25 19 19 38 -5 13 -35 17
-46 6z"/>
<path d="M2447 2529 c-28 -17 -39 -57 -26 -96 18 -57 73 -70 114 -28 64 63
-11 169 -88 124z m74 -43 c9 -31 -7 -76 -27 -83 -34 -11 -60 77 -32 105 21 21
51 10 59 -22z"/>
<path d="M2780 2520 c-31 -31 -27 -93 6 -119 15 -12 34 -21 44 -21 10 0 29 9
44 21 54 43 24 139 -44 139 -17 0 -39 -9 -50 -20z m84 -37 c7 -25 5 -38 -8
-58 -9 -14 -21 -25 -26 -25 -17 0 -40 32 -40 56 0 67 56 88 74 27z"/>
<path d="M3245 2520 c-21 -24 -8 -47 20 -36 14 5 15 9 5 21 -10 13 -8 15 14
15 42 0 34 -35 -14 -60 -41 -21 -51 -45 -28 -68 16 -16 38 -15 58 3 15 14 18
14 30 0 16 -19 34 -19 54 1 18 17 22 54 6 54 -5 0 -10 -9 -10 -20 0 -11 -7
-20 -15 -20 -11 0 -15 12 -15 49 0 32 -6 55 -16 65 -22 22 -67 20 -89 -4z m66
-82 c-8 -22 -51 -39 -51 -20 0 10 39 41 52 41 4 1 4 -9 -1 -21z"/>
<path d="M3509 2521 c-18 -14 -24 -29 -24 -61 0 -68 60 -102 113 -64 22 15 30
44 13 44 -5 0 -14 -7 -21 -15 -28 -34 -70 -10 -70 40 0 37 16 55 48 55 20 0
22 -2 12 -15 -14 -16 -5 -35 16 -35 23 0 28 29 9 50 -23 25 -66 26 -96 1z"/>
<path d="M3660 2520 c-31 -31 -27 -93 6 -119 15 -12 34 -21 44 -21 10 0 29 9
44 21 54 43 24 139 -44 139 -17 0 -39 -9 -50 -20z m84 -31 c20 -59 -22 -111
-56 -69 -20 25 -23 52 -7 81 15 28 51 21 63 -12z"/>
<path d="M3800 2530 c0 -5 5 -10 10 -10 15 0 13 -117 -2 -123 -7 -3 7 -5 32
-5 25 0 39 2 33 5 -20 8 -17 109 3 117 9 3 20 4 25 0 14 -8 11 -111 -3 -117
-7 -3 7 -6 32 -6 27 0 40 3 32 8 -9 5 -12 25 -10 62 3 46 6 54 23 54 17 0 20
-8 23 -48 2 -27 -2 -55 -9 -63 -10 -12 -4 -14 32 -14 35 1 40 3 27 11 -14 7
-18 23 -18 62 0 29 -5 58 -12 65 -14 14 -54 16 -63 2 -4 -6 -13 -5 -25 2 -15
10 -27 10 -50 1 -16 -6 -30 -7 -30 -2 0 5 -11 9 -25 9 -14 0 -25 -4 -25 -10z"/>
<path d="M3421 2416 c-9 -10 -8 -16 3 -25 10 -9 16 -8 25 3 9 10 8 16 -3 25
-10 9 -16 8 -25 -3z"/>
</g>
</svg>
